<?xml version="1.0" encoding="UTF-8"?>
<svg xmlns="http://www.w3.org/2000/svg" xmlns:xlink="http://www.w3.org/1999/xlink" width="375pt" height="374.999991pt" viewBox="0 0 375 374.999991" version="1.2">
<defs>
<clipPath id="clip1">
  <path d="M 7.011719 7.011719 L 361.761719 7.011719 L 361.761719 361.761719 L 7.011719 361.761719 Z M 7.011719 7.011719 "/>
</clipPath>
</defs>
<g id="surface1">
<g clip-path="url(#clip1)" clip-rule="nonzero">
<path style=" stroke:none;fill-rule:nonzero;fill:rgb(29.798889%,83.918762%,16.859436%);fill-opacity:1;" d="M 361.746094 184.390625 C 361.746094 282.339844 282.332031 361.746094 184.390625 361.746094 C 86.4375 361.746094 7.027344 282.339844 7.027344 184.390625 C 7.027344 86.4375 86.4375 7.03125 184.390625 7.03125 C 282.332031 7.03125 361.746094 86.4375 361.746094 184.390625 "/>
</g>
<path style=" stroke:none;fill-rule:nonzero;fill:rgb(29.798889%,83.918762%,16.859436%);fill-opacity:1;" d="M 345.621094 184.390625 C 345.621094 273.425781 273.425781 345.613281 184.390625 345.613281 C 95.335938 345.613281 23.152344 273.425781 23.152344 184.390625 C 23.152344 95.347656 95.335938 23.15625 184.390625 23.15625 C 273.425781 23.15625 345.621094 95.347656 345.621094 184.390625 "/>
<path style=" stroke:none;fill-rule:nonzero;fill:rgb(95.689392%,95.689392%,95.689392%);fill-opacity:1;" d="M 48.828125 253.644531 L 77.382812 216.964844 L 135.3125 257.855469 L 273.070312 74.816406 L 311.523438 100.625 L 141.640625 319.191406 L 48.828125 253.644531 "/>
</g>
</svg>
